Coordinates
version=1
nRows=60
nColumns=12
inDegrees=yes

Units are S.I. units (second, meters, Newtons, ...)
Angles are in degrees

endheader
time	SC_y	SC_z	SC_x	AC_y	AC_z	AC_x	GH_y	GH_z	GH_yy	EL_x	PS_y
       0.0              -29.79          19.41          45.47          67.83          2.098         -4.802         -157.5          57.41          88.37          51.09          35.56
  0.009411              -29.79          19.41          45.47          67.83          2.097         -4.803         -157.5          57.41          88.37           51.1          35.56
   0.01882              -29.79           19.4          45.46          67.83          2.096         -4.805         -157.4           57.4          88.36          51.11          35.57
   0.02823              -29.79           19.4          45.46          67.83          2.094         -4.807         -157.4          57.39          88.36          51.13          35.58
   0.03764              -29.79           19.4          45.45          67.83          2.093         -4.809         -157.3          57.38          88.35          51.14          35.58
   0.04706               -29.8          19.39          45.45          67.82          2.092         -4.811         -157.3          57.37          88.35          51.15          35.59
   0.05647               -29.8          19.39          45.44          67.82           2.09         -4.813         -157.2          57.36          88.34          51.17          35.59
   0.06588               -29.8          19.38          45.43          67.82          2.089         -4.816         -157.1          57.35          88.34          51.18           35.6
   0.07529               -29.8          19.38          45.43          67.82          2.087         -4.818         -157.1          57.34          88.33           51.2          35.61
    0.0847               -29.8          19.37          45.42          67.81          2.085         -4.821         -157.0          57.33          88.32          51.22          35.62
   0.09411              -29.81          19.36          45.41          67.81          2.083         -4.824         -156.9          57.31          88.31          51.24          35.63
    0.1035              -29.81          19.36           45.4          67.81          2.081         -4.827         -156.8           57.3          88.31          51.26          35.64
    0.1129              -29.81          19.35          45.39          67.81          2.078         -4.831         -156.7          57.28           88.3          51.28          35.65
    0.1223              -29.81          19.34          45.38           67.8          2.076         -4.834         -156.6          57.27          88.29           51.3          35.66
    0.1318              -29.82          19.33          45.37           67.8          2.073         -4.838         -156.5          57.25          88.28          51.33          35.67
    0.1412              -29.82          19.33          45.35          67.79           2.07         -4.843         -156.4          57.23          88.26          51.36          35.69
    0.1506              -29.82          19.32          45.34          67.79          2.067         -4.847         -156.3          57.21          88.25          51.39           35.7
      0.16              -29.83           19.3          45.32          67.78          2.064         -4.853         -156.1          57.18          88.24          51.42          35.72
    0.1694              -29.83          19.29          45.31          67.78           2.06         -4.858         -156.0          57.16          88.22          51.46          35.73
    0.1788              -29.84          19.28          45.29          67.77          2.056         -4.864         -155.8          57.13          88.21           51.5          35.75
    0.1882              -29.84          19.27          45.27          67.77          2.051         -4.871         -155.6           57.1          88.19          51.54          35.77
    0.1976              -29.85          19.25          45.25          67.76          2.046         -4.879         -155.4          57.07          88.17          51.59           35.8
     0.207              -29.86          19.23          45.22          67.75           2.04         -4.887         -155.2          57.03          88.15          51.64          35.82
    0.2165              -29.86          19.21           45.2          67.74          2.034         -4.896         -155.0          56.99          88.12           51.7          35.85
    0.2259              -29.87          19.19          45.17          67.74          2.027         -4.906         -154.7          56.94           88.1          51.77          35.88
    0.2353              -29.88          19.17          45.13          67.72           2.02         -4.918         -154.4          56.89          88.07          51.84          35.92
    0.2447              -29.89          19.14           45.1          67.71          2.011          -4.93         -154.0          56.83          88.03          51.92          35.95
    0.2541               -29.9          19.11          45.06           67.7          2.001         -4.944         -153.6          56.77           88.0          52.02           36.0
    0.2635              -29.91          19.08          45.01          67.68           1.99         -4.961         -153.2           56.7          87.95          52.12          36.05
    0.2729              -29.93          19.04          44.95          67.67          1.978         -4.979         -152.7          56.61          87.91          52.24           36.1
    0.2823              -29.95          18.99          44.89          67.65          1.964           -5.0         -152.1          56.52          87.85          52.37          36.17
    0.2917              -29.96          18.94          44.82          67.63          1.948         -5.024         -151.5          56.41          87.79          52.53          36.24
    0.3012              -29.99          18.89          44.74           67.6          1.929         -5.051         -150.7          56.29          87.71          52.71          36.33
    0.3106              -30.01          18.82          44.65          67.57          1.907         -5.084         -149.9          56.14          87.63          52.92          36.43
      0.32              -30.04          18.74          44.54          67.53          1.881         -5.121         -148.8          55.97          87.53          53.16          36.54
    0.3294              -30.08          18.64          44.41          67.49          1.851         -5.166         -147.6          55.77          87.41          53.45          36.68
    0.3388              -30.12          18.53          44.25          67.44          1.816         -5.218         -146.2          55.53          87.27          53.79          36.84
    0.3482              -30.17           18.4          44.07          67.39          1.773         -5.282         -144.5          55.25          87.11           54.2          37.03
    0.3576              -30.23          18.24          43.84          67.31          1.721         -5.358         -142.4           54.9          86.91          54.69          37.27
     0.367               -30.3          18.04          43.57          67.23          1.658         -5.451         -139.9          54.48          86.66           55.3          37.56
    0.3764              -30.39           17.8          43.23          67.12          1.579         -5.567         -136.7          53.96          86.36          56.04          37.91
    0.3859              -30.51           17.5          42.81          66.99          1.482         -5.711         -132.8          53.31          85.98          56.97          38.35
    0.3953              -30.65          17.11          42.28          66.82          1.359         -5.892         -127.9          52.49           85.5          58.14          38.91
    0.4047              -30.83          16.63          41.61           66.6          1.203         -6.122         -121.6          51.45          84.89          59.63          39.62
    0.4141              -31.07          16.01          40.74          66.33          1.003         -6.417         -113.6          50.11          84.12          61.54          40.52
    0.4235              -31.37          15.21          39.63          65.98         0.7471         -6.795         -103.3          48.41          83.12          63.99          41.68
    0.4329              -31.75          14.19          38.22          65.53         0.4196         -7.278         -90.19          46.22          81.85          67.11          43.17
    0.4423              -32.23          12.91          36.44          64.96       0.007901         -7.885         -73.67          43.48          80.25          71.04          45.03
    0.4517              -32.82          11.35          34.27          64.27        -0.4938         -8.625         -53.54          40.13          78.29          75.83          47.31
    0.4611               -33.5          9.539          31.76          63.47         -1.075         -9.483         -30.21          36.25          76.03          81.38          49.95
    0.4706              -34.23           7.58          29.03          62.61         -1.705         -10.41         -4.947          32.05          73.58          87.39           52.8
      0.48              -34.97          5.621          26.31          61.74         -2.335         -11.34          20.32          27.85          71.14           93.4          55.65
    0.4894              -35.65          3.812           23.8          60.95         -2.916          -12.2          43.65          23.98          68.88          98.95          58.29
    0.4988              -36.24          2.251          21.63          60.26         -3.418         -12.94          63.78          20.63          66.92          103.7          60.57
    0.5082              -36.72         0.9699          19.85          59.69          -3.83         -13.55          80.29          17.88          65.32          107.7          62.43
    0.5176               -37.1       -0.04879          18.43          59.24         -4.157         -14.03          93.43           15.7          64.05          110.8          63.92
     0.527               -37.4        -0.8463          17.32          58.89         -4.414         -14.41          103.7          13.99          63.05          113.2          65.08
    0.5364              -37.63         -1.468          16.46          58.61         -4.613          -14.7          111.7          12.66          62.28          115.2          65.98
    0.5458              -37.82         -1.953          15.79           58.4         -4.769         -14.93          118.0          11.62          61.67          116.6          66.69
    0.5553              -37.96         -2.335          15.26          58.23         -4.892         -15.11          122.9           10.8          61.19          117.8          67.25
